<mxfile host="Electron" modified="2024-07-10T19:11:24.463Z" agent="Mozilla/5.0 (Windows NT 10.0; Win64; x64) AppleWebKit/537.36 (KHTML, like Gecko) draw.io/24.4.8 Chrome/124.0.6367.207 Electron/30.0.6 Safari/537.36" etag="E3ggvKcKFxaWg7KncVSi" version="24.4.8" type="device">
  <diagram name="Page-1" id="KZN-zyBD-0XipZeYQRDT">
    <mxGraphModel dx="490" dy="283" grid="1" gridSize="10" guides="1" tooltips="1" connect="1" arrows="1" fold="1" page="1" pageScale="1" pageWidth="500" pageHeight="200" math="0" shadow="0">
      <root>
        <mxCell id="0" />
        <mxCell id="1" parent="0" />
        <mxCell id="PZP4gdgeWaH-fIwLRfgN-368" value="" style="rounded=0;whiteSpace=wrap;html=1;fillColor=#FFFFFF;strokeColor=#DDDDDD;glass=0;aspect=fixed;container=0;" parent="1" vertex="1">
          <mxGeometry x="9" y="78" width="482.6" height="44.45" as="geometry" />
        </mxCell>
        <mxCell id="PZP4gdgeWaH-fIwLRfgN-369" value="" style="rounded=0;whiteSpace=wrap;html=1;fillColor=#FFFFFF;strokeColor=#DDDDDD;glass=0;aspect=fixed;container=0;" parent="1" vertex="1">
          <mxGeometry x="27" y="78" width="446.6" height="44.45" as="geometry" />
        </mxCell>
        <mxCell id="PZP4gdgeWaH-fIwLRfgN-376" value="" style="rounded=0;whiteSpace=wrap;html=1;fillColor=#000000;fontColor=#ffffff;strokeColor=none;container=0;" parent="1" vertex="1">
          <mxGeometry x="16" y="113.45" width="4" height="6" as="geometry" />
        </mxCell>
        <mxCell id="PZP4gdgeWaH-fIwLRfgN-381" value="" style="ellipse;whiteSpace=wrap;html=1;aspect=fixed;strokeColor=none;fillColor=#000000;container=0;" parent="1" vertex="1">
          <mxGeometry x="17" y="113.45" width="6" height="6" as="geometry" />
        </mxCell>
        <mxCell id="PZP4gdgeWaH-fIwLRfgN-382" value="" style="ellipse;whiteSpace=wrap;html=1;aspect=fixed;strokeColor=none;fillColor=#000000;container=0;" parent="1" vertex="1">
          <mxGeometry x="13" y="113.45" width="6" height="6" as="geometry" />
        </mxCell>
        <mxCell id="PZP4gdgeWaH-fIwLRfgN-385" value="" style="rounded=0;whiteSpace=wrap;html=1;fillColor=#000000;fontColor=#ffffff;strokeColor=none;container=0;" parent="1" vertex="1">
          <mxGeometry x="16" y="81" width="4" height="6" as="geometry" />
        </mxCell>
        <mxCell id="PZP4gdgeWaH-fIwLRfgN-386" value="" style="ellipse;whiteSpace=wrap;html=1;aspect=fixed;strokeColor=none;fillColor=#000000;container=0;" parent="1" vertex="1">
          <mxGeometry x="17" y="81" width="6" height="6" as="geometry" />
        </mxCell>
        <mxCell id="PZP4gdgeWaH-fIwLRfgN-387" value="" style="ellipse;whiteSpace=wrap;html=1;aspect=fixed;strokeColor=none;fillColor=#000000;container=0;" parent="1" vertex="1">
          <mxGeometry x="13" y="81" width="6" height="6" as="geometry" />
        </mxCell>
        <mxCell id="PZP4gdgeWaH-fIwLRfgN-391" value="" style="rounded=0;whiteSpace=wrap;html=1;fillColor=#000000;fontColor=#ffffff;strokeColor=none;container=0;" parent="1" vertex="1">
          <mxGeometry x="480.6" y="113.45" width="4" height="6" as="geometry" />
        </mxCell>
        <mxCell id="PZP4gdgeWaH-fIwLRfgN-392" value="" style="ellipse;whiteSpace=wrap;html=1;aspect=fixed;strokeColor=none;fillColor=#000000;container=0;" parent="1" vertex="1">
          <mxGeometry x="481.6" y="113.45" width="6" height="6" as="geometry" />
        </mxCell>
        <mxCell id="PZP4gdgeWaH-fIwLRfgN-393" value="" style="ellipse;whiteSpace=wrap;html=1;aspect=fixed;strokeColor=none;fillColor=#000000;container=0;" parent="1" vertex="1">
          <mxGeometry x="477.6" y="113.45" width="6" height="6" as="geometry" />
        </mxCell>
        <mxCell id="PZP4gdgeWaH-fIwLRfgN-395" value="" style="rounded=0;whiteSpace=wrap;html=1;fillColor=#000000;fontColor=#ffffff;strokeColor=none;container=0;" parent="1" vertex="1">
          <mxGeometry x="480.6" y="81" width="4" height="6" as="geometry" />
        </mxCell>
        <mxCell id="PZP4gdgeWaH-fIwLRfgN-396" value="" style="ellipse;whiteSpace=wrap;html=1;aspect=fixed;strokeColor=none;fillColor=#000000;container=0;" parent="1" vertex="1">
          <mxGeometry x="481.6" y="81" width="6" height="6" as="geometry" />
        </mxCell>
        <mxCell id="PZP4gdgeWaH-fIwLRfgN-397" value="" style="ellipse;whiteSpace=wrap;html=1;aspect=fixed;strokeColor=none;fillColor=#000000;container=0;" parent="1" vertex="1">
          <mxGeometry x="477.6" y="81" width="6" height="6" as="geometry" />
        </mxCell>
        <mxCell id="u_5jVX6GxhMMPaia9oR6-18" value="" style="rounded=1;whiteSpace=wrap;html=1;fillColor=#DDDDDD;strokeColor=none;glass=0;aspect=fixed;container=0;arcSize=5;" parent="1" vertex="1">
          <mxGeometry x="30" y="81" width="440.6" height="38.45" as="geometry" />
        </mxCell>
        <mxCell id="PZP4gdgeWaH-fIwLRfgN-372" value="&lt;font style=&quot;font-size: 4px;&quot;&gt;CRS326-24G-2S+RM&lt;/font&gt;" style="text;html=1;align=right;verticalAlign=middle;rounded=0;fillColor=none;strokeColor=none;fontSize=4;fontFamily=Tahoma;spacing=0;fontColor=#000000;whiteSpace=wrap;container=0;fontStyle=2" parent="1" vertex="1">
          <mxGeometry x="422" y="90" width="45.6" height="6" as="geometry" />
        </mxCell>
        <mxCell id="PZP4gdgeWaH-fIwLRfgN-370" value="" style="shape=image;verticalLabelPosition=bottom;labelBackgroundColor=default;verticalAlign=top;imageAspect=0;image=data:image/svg+xml,PHN2ZyB4bWxuczp4bGluaz0iaHR0cDovL3d3dy53My5vcmcvMTk5OS94bGluayIgeG1sbnM9Imh0dHA6Ly93d3cudzMub3JnLzIwMDAvc3ZnIiB4bWw6c3BhY2U9InByZXNlcnZlIiB2aWV3Qm94PSIwIDAgNjEyIDE2MC40OTIiIGhlaWdodD0iMTYwLjQ5MnB4IiB3aWR0aD0iNjEycHgiIHk9IjBweCIgeD0iMHB4IiB2ZXJzaW9uPSIxLjIiPiYjeGE7PGcgaWQ9IkJhY2tncm91bmQiPiYjeGE7PC9nPiYjeGE7PGcgaWQ9Ikd1aWRlcyI+JiN4YTs8L2c+JiN4YTs8ZyBpZD0iRm9yZWdyb3VuZCI+JiN4YTs8L2c+JiN4YTs8ZyBpZD0iVmlsbmlzaGkiPiYjeGE7CTxnPiYjeGE7CQk8cG9seWdvbiBwb2ludHM9IjI4LjEyMiw1NC41MDEgMi42MDIsMTUyLjQ2NiAxMy40NjcsMTUyLjQ2NiAzNS42OTUsNjIuNDU5IDM2LjAyNCw2Mi40NTkgNTQuOTU4LDE1Mi40NjYgICAgIDY2LjE1NSwxNTIuNDY2IDEzMS4xODksNjMuODMyIDEzMS41MTksNjMuODMyIDEwNy4zMTUsMTUyLjQ2NiAxMTguMzQ3LDE1Mi40NjYgMTQzLjUzOCw1NC41MDEgMTI3LjIzNyw1NC41MDEgNjIuNjk3LDE0Mi40NSAgICAgNDQuNDIxLDU0LjUwMSIgZmlsbC1ydWxlPSJldmVub2RkIi8+JiN4YTsJCTxwYXRoIGQ9Ik0xNTQuMTA5LDgxLjY2OGwtMTguMjc2LDcwLjc5OGgxMC4zNzNsMTguMjc1LTcwLjc5OEgxNTQuMTA5eiIgZmlsbC1ydWxlPSJldmVub2RkIi8+JiN4YTsJCTxwb2x5Z29uIHBvaW50cz0iMTc5LjM4OCw4MS42NTQgMTYxLjMyNCwxNTIuNDY2IDE3MS42OTcsMTUyLjQ2NiAxNzguMjgyLDEyNi44MDggMTk2LjM5MywxMTQuMTg1ICAgICAyMTguOTUsMTUyLjQ2NiAyMzAuMzExLDE1Mi40NjYgMjA0LjYyNiwxMDguOTcxIDI0NC43OTksODEuNjY4IDIzMC45NjksODEuNjY4IDE4MS4yNDYsMTE2LjI0NCAxODAuOTE3LDExNS45NjkgMTg5Ljc3OCw4MS42NTQiIGZpbGwtcnVsZT0iZXZlbm9kZCIvPiYjeGE7CQk8cGF0aCBkPSJNMjUwLjkxMyw4MS42NjhsLTE4LjI3NSw3MC43OThoMTAuMzczbDkuNTQ5LTM3LjA0NmMzLjQ1OC0xMy4zMDksMTMuMzM2LTI1Ljc5NCwzMS45NDEtMjYuMDY4ICAgIGMxLjk3NiwwLDMuOTUyLDAuMTM3LDUuOTI3LDAuMTM3bDIuMzA1LTguNjQ0Yy0xLjgxMi0wLjEzOC0zLjc4Ny0wLjEzOC01LjU5OC0wLjEzOGMtMTUuMTQ3LTAuMTM3LTI0LjIwMyw3LjEzNS0zMC43ODksMTcuMjg5ICAgIGgtMC4zM2w0LjI4MS0xNi4zMjhIMjUwLjkxM3oiIGZpbGwtcnVsZT0iZXZlbm9kZCIvPiYjeGE7CQk8cGF0aCBkPSJNMzY0LjcwMSwxMDcuMzI1YzAtMTcuNDI1LTEzLjgzLTI3LjcxNi0zMy41ODgtMjcuNzE2Yy0zMC4yOTUsMC00Ny40MTgsMjIuMjI4LTQ3LjQxOCw0NS40MTUgICAgYzAsMTcuNywxMi4wMTksMjkuNSwzMy45MTYsMjkuNUMzNDkuMDYxLDE1NC41MjMsMzY0LjcwMSwxMzEuMTk5LDM2NC43MDEsMTA3LjMyNXogTTM1NC4zMjgsMTA5LjEwOCAgICBjMCwxNi40NjUtMTIuMDIsMzguMTQ0LTM0Ljc0LDM4LjE0NGMtMTcuMjg4LDAtMjUuNTItOS4zMzEtMjUuNTItMjMuMDUxYzAtMTYuNjAxLDEyLjUxNC0zNy4zMiwzNS4yMzQtMzcuMzIgICAgQzM0NS45MzEsODYuODgxLDM1NC4zMjgsOTUuOTM3LDM1NC4zMjgsMTA5LjEwOHoiIGZpbGwtcnVsZT0iZXZlbm9kZCIvPiYjeGE7CQk8cG9seWdvbiBwb2ludHM9IjQ2NC4yMzYsODEuNjE4IDQ3MC45NzksNTQuNDg1IDM2OS41NTgsNTQuNDg1IDM2Mi44NTYsODEuNjU0IDM5NS4zOTIsODEuNjU0IDM5NS4zOSw4MS42NjIgICAgIDQzMS42NjEsODEuNjYyIDQzMS42NjUsODEuNjU0IiBmaWxsLXJ1bGU9ImV2ZW5vZGQiLz4mI3hhOwkJPHBvbHlnb24gcG9pbnRzPSIzOTIuMTY1LDk0LjYzNCAzNzcuNzksMTUyLjQ0OSA0MTQuMDEyLDE1Mi40NDkgNDI4LjQyMyw5NC42NTQgNDI4LjQzLDk0LjYzIDM5Mi4xNjUsOTQuNjMiIGZpbGwtcnVsZT0iZXZlbm9kZCIvPiYjeGE7CQk8cGF0aCBkPSJNNDcwLjA1NSw5NC42MzlsLTE0LjMxNSw1Ny44MTFoMzIuNjAxbDE0LjMxNS01Ny44MTFINDcwLjA1NXogTTUwNS45MzIsODEuNjE4bDYuNzc0LTI3LjEzM2gtMzIuNiAgICBsLTYuODIxLDI3LjE2OEw1MDUuOTMyLDgxLjYxOHoiIGZpbGwtcnVsZT0iZXZlbm9kZCIvPiYjeGE7CQk8cG9seWdvbiBwb2ludHM9IjUyNi4yMDIsNTQuNDg1IDUwMS44MzQsMTUyLjQ0OSA1MzQuNDM0LDE1Mi40NDkgNTM5LjUzOCwxMzIuMTQzIDU0Ni45NDgsMTI2LjY1NSAgICAgNTU4LjQ3MywxNTIuNDQ5IDU5My44NzEsMTUyLjQ0OSA1NzIuMTM4LDEwOS45MTYgNjEwLjUsODEuMjQgNTcxLjQ3OSw4MS4yNCA1NDcuNDQxLDEwMi4wOTUgNTQ3LjExMSwxMDIuMDk1IDU1OC44MDIsNTQuNDg1IiBmaWxsLXJ1bGU9ImV2ZW5vZGQiLz4mI3hhOwkJPGc+JiN4YTsJCQk8cGF0aCBkPSJNMTUyLjg3NSwxMS42OTRjNC45MzcsMzQuMjc2LDIzLjMzNyw1NS4wODksNjAuODMxLDU2LjgwOSAgICAgQzE3OC4zNzgsODIuMDA4LDE0MS45NTksNTAuMjM4LDE1Mi44NzUsMTEuNjk0eiIgZmlsbC1ydWxlPSJldmVub2RkIi8+JiN4YTsJCQk8cGF0aCBkPSJNMTY4LjExOSw2Ljg0YzMuOTg0LDI3LjY1OSwxOC44MzIsNDQuNDUzLDQ5LjA4Niw0NS44NDEgICAgIEMxODguNjk5LDYzLjU3OSwxNTkuMzExLDM3Ljk0MiwxNjguMTE5LDYuODR6IiBmaWxsLXJ1bGU9ImV2ZW5vZGQiLz4mI3hhOwkJPC9nPiYjeGE7CTwvZz4mI3hhOzwvZz4mI3hhOzwvc3ZnPg==;container=0;" parent="1" vertex="1">
          <mxGeometry x="31" y="82" width="30" height="8" as="geometry" />
        </mxCell>
        <mxCell id="u_5jVX6GxhMMPaia9oR6-19" value="" style="rounded=1;whiteSpace=wrap;html=1;fillColor=#CCCCCC;strokeColor=none;glass=0;container=0;arcSize=28;" parent="1" vertex="1">
          <mxGeometry x="30" y="112.45" width="440.6" height="7" as="geometry" />
        </mxCell>
        <mxCell id="u_5jVX6GxhMMPaia9oR6-20" value="" style="rounded=0;whiteSpace=wrap;html=1;fillColor=#CCCCCC;strokeColor=none;glass=0;aspect=fixed;container=0;arcSize=5;connectable=0;" parent="1" vertex="1">
          <mxGeometry x="30" y="112.5" width="440.6" height="3.450000000000003" as="geometry" />
        </mxCell>
        <mxCell id="PZP4gdgeWaH-fIwLRfgN-705" value="RES" style="text;align=center;verticalAlign=middle;rounded=0;spacing=0;spacingBottom=0;textShadow=0;fontFamily=Lucida Console;fontSize=3;fontColor=#000000;spacingRight=0;spacingLeft=0;whiteSpace=wrap;html=1;container=0;" parent="1" vertex="1">
          <mxGeometry x="47.53000000000003" y="116.51" width="6.44" height="2.4" as="geometry" />
        </mxCell>
        <mxCell id="PZP4gdgeWaH-fIwLRfgN-704" value="" style="ellipse;whiteSpace=wrap;html=1;aspect=fixed;strokeWidth=0.1;strokeColor=#000000;fillColor=#222222;container=0;" parent="1" vertex="1">
          <mxGeometry x="49.56" y="113.44727272727275" width="2.372727272727273" height="2.372727272727273" as="geometry" />
        </mxCell>
        <mxCell id="u_5jVX6GxhMMPaia9oR6-76" value="" style="rounded=0;whiteSpace=wrap;html=1;strokeColor=#000000;fillColor=#BFBFBF;fontColor=#ffffff;strokeWidth=0.1;fontSize=3;fontFamily=Teko Light;align=center;verticalAlign=middle;container=0;" parent="1" vertex="1">
          <mxGeometry x="126" y="86.5" width="59.5" height="26" as="geometry" />
        </mxCell>
        <mxCell id="u_5jVX6GxhMMPaia9oR6-77" value="" style="rounded=0;whiteSpace=wrap;html=1;strokeColor=none;fillColor=#000000;fontColor=#ffffff;strokeWidth=0.1;fontSize=3;fontFamily=Teko Light;container=0;" parent="1" vertex="1">
          <mxGeometry x="170.74714285714285" y="101.9940784933115" width="12" height="7" as="geometry" />
        </mxCell>
        <mxCell id="u_5jVX6GxhMMPaia9oR6-78" value="" style="rounded=0;whiteSpace=wrap;html=1;strokeColor=none;fillColor=#000000;fontColor=#ffffff;strokeWidth=0.1;fontSize=3;fontFamily=Teko Light;container=0;" parent="1" vertex="1">
          <mxGeometry x="173.7485714285714" y="107.99757674418606" width="6" height="4" as="geometry" />
        </mxCell>
        <mxCell id="u_5jVX6GxhMMPaia9oR6-79" value="" style="rounded=0;whiteSpace=wrap;html=1;strokeColor=none;fillColor=#000000;fontColor=#ffffff;strokeWidth=0.1;fontSize=3;fontFamily=Teko Light;container=0;" parent="1" vertex="1">
          <mxGeometry x="156.74714285714285" y="101.9940784933115" width="12" height="7" as="geometry" />
        </mxCell>
        <mxCell id="u_5jVX6GxhMMPaia9oR6-80" value="" style="rounded=0;whiteSpace=wrap;html=1;strokeColor=none;fillColor=#000000;fontColor=#ffffff;strokeWidth=0.1;fontSize=3;fontFamily=Teko Light;container=0;" parent="1" vertex="1">
          <mxGeometry x="159.7485714285714" y="107.99757674418606" width="6" height="4" as="geometry" />
        </mxCell>
        <mxCell id="u_5jVX6GxhMMPaia9oR6-81" value="" style="rounded=0;whiteSpace=wrap;html=1;strokeColor=none;fillColor=#000000;fontColor=#ffffff;strokeWidth=0.1;fontSize=3;fontFamily=Teko Light;container=0;" parent="1" vertex="1">
          <mxGeometry x="142.74714285714285" y="101.9940784933115" width="12" height="7" as="geometry" />
        </mxCell>
        <mxCell id="u_5jVX6GxhMMPaia9oR6-82" value="" style="rounded=0;whiteSpace=wrap;html=1;strokeColor=none;fillColor=#000000;fontColor=#ffffff;strokeWidth=0.1;fontSize=3;fontFamily=Teko Light;container=0;" parent="1" vertex="1">
          <mxGeometry x="145.7485714285714" y="107.99757674418606" width="6" height="4" as="geometry" />
        </mxCell>
        <mxCell id="u_5jVX6GxhMMPaia9oR6-83" value="" style="rounded=0;whiteSpace=wrap;html=1;strokeColor=none;fillColor=#000000;fontColor=#ffffff;strokeWidth=0.1;fontSize=3;fontFamily=Teko Light;container=0;" parent="1" vertex="1">
          <mxGeometry x="128.74714285714285" y="101.99757674418606" width="12" height="6.99650174912544" as="geometry" />
        </mxCell>
        <mxCell id="u_5jVX6GxhMMPaia9oR6-84" value="" style="rounded=0;whiteSpace=wrap;html=1;strokeColor=none;fillColor=#000000;fontColor=#ffffff;strokeWidth=0.1;fontSize=3;fontFamily=Teko Light;container=0;" parent="1" vertex="1">
          <mxGeometry x="131.7485714285714" y="107.99757674418606" width="6" height="4" as="geometry" />
        </mxCell>
        <mxCell id="u_5jVX6GxhMMPaia9oR6-85" value="" style="rounded=0;whiteSpace=wrap;html=1;strokeColor=none;fillColor=#000000;fontColor=#ffffff;strokeWidth=0.1;fontSize=3;fontFamily=Teko Light;container=0;" parent="1" vertex="1">
          <mxGeometry x="128.74714285714285" y="90.00107499506062" width="12" height="6.99650174912544" as="geometry" />
        </mxCell>
        <mxCell id="u_5jVX6GxhMMPaia9oR6-86" value="" style="rounded=0;whiteSpace=wrap;html=1;strokeColor=none;fillColor=#000000;fontColor=#ffffff;strokeWidth=0.1;fontSize=3;fontFamily=Teko Light;container=0;" parent="1" vertex="1">
          <mxGeometry x="131.74857142857144" y="86.99757674418606" width="6" height="4" as="geometry" />
        </mxCell>
        <mxCell id="u_5jVX6GxhMMPaia9oR6-87" value="" style="rounded=0;whiteSpace=wrap;html=1;strokeColor=none;fillColor=#000000;fontColor=#ffffff;strokeWidth=0.1;fontSize=3;fontFamily=Teko Light;container=0;" parent="1" vertex="1">
          <mxGeometry x="142.74714285714285" y="90.00107499506062" width="12" height="7" as="geometry" />
        </mxCell>
        <mxCell id="u_5jVX6GxhMMPaia9oR6-88" value="" style="rounded=0;whiteSpace=wrap;html=1;strokeColor=none;fillColor=#000000;fontColor=#ffffff;strokeWidth=0.1;fontSize=3;fontFamily=Teko Light;container=0;" parent="1" vertex="1">
          <mxGeometry x="145.7485714285714" y="86.99757674418606" width="6" height="4" as="geometry" />
        </mxCell>
        <mxCell id="u_5jVX6GxhMMPaia9oR6-89" value="" style="rounded=0;whiteSpace=wrap;html=1;strokeColor=none;fillColor=#000000;fontColor=#ffffff;strokeWidth=0.1;fontSize=3;fontFamily=Teko Light;container=0;" parent="1" vertex="1">
          <mxGeometry x="156.74714285714285" y="90.00107499506062" width="12" height="7" as="geometry" />
        </mxCell>
        <mxCell id="u_5jVX6GxhMMPaia9oR6-90" value="" style="rounded=0;whiteSpace=wrap;html=1;strokeColor=none;fillColor=#000000;fontColor=#ffffff;strokeWidth=0.1;fontSize=3;fontFamily=Teko Light;container=0;" parent="1" vertex="1">
          <mxGeometry x="159.7485714285714" y="86.99757674418606" width="6" height="4" as="geometry" />
        </mxCell>
        <mxCell id="u_5jVX6GxhMMPaia9oR6-91" value="" style="rounded=0;whiteSpace=wrap;html=1;strokeColor=none;fillColor=#000000;fontColor=#ffffff;strokeWidth=0.1;fontSize=3;fontFamily=Teko Light;container=0;" parent="1" vertex="1">
          <mxGeometry x="170.74714285714285" y="90.00107499506062" width="12" height="7" as="geometry" />
        </mxCell>
        <mxCell id="u_5jVX6GxhMMPaia9oR6-92" value="" style="rounded=0;whiteSpace=wrap;html=1;strokeColor=none;fillColor=#000000;fontColor=#ffffff;strokeWidth=0.1;fontSize=3;fontFamily=Teko Light;container=0;" parent="1" vertex="1">
          <mxGeometry x="173.7485714285714" y="86.99757674418606" width="6" height="4" as="geometry" />
        </mxCell>
        <mxCell id="u_5jVX6GxhMMPaia9oR6-94" value="" style="rounded=0;whiteSpace=wrap;html=1;strokeColor=#000000;fillColor=#BFBFBF;fontColor=#ffffff;strokeWidth=0.1;fontSize=3;fontFamily=Teko Light;align=center;verticalAlign=middle;container=0;" parent="1" vertex="1">
          <mxGeometry x="189.5" y="86.5" width="59.5" height="26" as="geometry" />
        </mxCell>
        <mxCell id="u_5jVX6GxhMMPaia9oR6-95" value="" style="rounded=0;whiteSpace=wrap;html=1;strokeColor=none;fillColor=#000000;fontColor=#ffffff;strokeWidth=0.1;fontSize=3;fontFamily=Teko Light;container=0;" parent="1" vertex="1">
          <mxGeometry x="234.24714285714285" y="101.9940784933115" width="12" height="7" as="geometry" />
        </mxCell>
        <mxCell id="u_5jVX6GxhMMPaia9oR6-96" value="" style="rounded=0;whiteSpace=wrap;html=1;strokeColor=none;fillColor=#000000;fontColor=#ffffff;strokeWidth=0.1;fontSize=3;fontFamily=Teko Light;container=0;" parent="1" vertex="1">
          <mxGeometry x="237.2485714285714" y="107.99757674418606" width="6" height="4" as="geometry" />
        </mxCell>
        <mxCell id="u_5jVX6GxhMMPaia9oR6-97" value="" style="rounded=0;whiteSpace=wrap;html=1;strokeColor=none;fillColor=#000000;fontColor=#ffffff;strokeWidth=0.1;fontSize=3;fontFamily=Teko Light;container=0;" parent="1" vertex="1">
          <mxGeometry x="220.24714285714285" y="101.9940784933115" width="12" height="7" as="geometry" />
        </mxCell>
        <mxCell id="u_5jVX6GxhMMPaia9oR6-98" value="" style="rounded=0;whiteSpace=wrap;html=1;strokeColor=none;fillColor=#000000;fontColor=#ffffff;strokeWidth=0.1;fontSize=3;fontFamily=Teko Light;container=0;" parent="1" vertex="1">
          <mxGeometry x="223.2485714285714" y="107.99757674418606" width="6" height="4" as="geometry" />
        </mxCell>
        <mxCell id="u_5jVX6GxhMMPaia9oR6-99" value="" style="rounded=0;whiteSpace=wrap;html=1;strokeColor=none;fillColor=#000000;fontColor=#ffffff;strokeWidth=0.1;fontSize=3;fontFamily=Teko Light;container=0;" parent="1" vertex="1">
          <mxGeometry x="206.24714285714285" y="101.9940784933115" width="12" height="7" as="geometry" />
        </mxCell>
        <mxCell id="u_5jVX6GxhMMPaia9oR6-100" value="" style="rounded=0;whiteSpace=wrap;html=1;strokeColor=none;fillColor=#000000;fontColor=#ffffff;strokeWidth=0.1;fontSize=3;fontFamily=Teko Light;container=0;" parent="1" vertex="1">
          <mxGeometry x="209.2485714285714" y="107.99757674418606" width="6" height="4" as="geometry" />
        </mxCell>
        <mxCell id="u_5jVX6GxhMMPaia9oR6-101" value="" style="rounded=0;whiteSpace=wrap;html=1;strokeColor=none;fillColor=#000000;fontColor=#ffffff;strokeWidth=0.1;fontSize=3;fontFamily=Teko Light;container=0;" parent="1" vertex="1">
          <mxGeometry x="192.24714285714285" y="101.99757674418606" width="12" height="6.99650174912544" as="geometry" />
        </mxCell>
        <mxCell id="u_5jVX6GxhMMPaia9oR6-102" value="" style="rounded=0;whiteSpace=wrap;html=1;strokeColor=none;fillColor=#000000;fontColor=#ffffff;strokeWidth=0.1;fontSize=3;fontFamily=Teko Light;container=0;" parent="1" vertex="1">
          <mxGeometry x="195.2485714285714" y="107.99757674418606" width="6" height="4" as="geometry" />
        </mxCell>
        <mxCell id="u_5jVX6GxhMMPaia9oR6-103" value="" style="rounded=0;whiteSpace=wrap;html=1;strokeColor=none;fillColor=#000000;fontColor=#ffffff;strokeWidth=0.1;fontSize=3;fontFamily=Teko Light;container=0;" parent="1" vertex="1">
          <mxGeometry x="192.24714285714285" y="90.00107499506062" width="12" height="6.99650174912544" as="geometry" />
        </mxCell>
        <mxCell id="u_5jVX6GxhMMPaia9oR6-104" value="" style="rounded=0;whiteSpace=wrap;html=1;strokeColor=none;fillColor=#000000;fontColor=#ffffff;strokeWidth=0.1;fontSize=3;fontFamily=Teko Light;container=0;" parent="1" vertex="1">
          <mxGeometry x="195.24857142857144" y="86.99757674418606" width="6" height="4" as="geometry" />
        </mxCell>
        <mxCell id="u_5jVX6GxhMMPaia9oR6-105" value="" style="rounded=0;whiteSpace=wrap;html=1;strokeColor=none;fillColor=#000000;fontColor=#ffffff;strokeWidth=0.1;fontSize=3;fontFamily=Teko Light;container=0;" parent="1" vertex="1">
          <mxGeometry x="206.24714285714285" y="90.00107499506062" width="12" height="7" as="geometry" />
        </mxCell>
        <mxCell id="u_5jVX6GxhMMPaia9oR6-106" value="" style="rounded=0;whiteSpace=wrap;html=1;strokeColor=none;fillColor=#000000;fontColor=#ffffff;strokeWidth=0.1;fontSize=3;fontFamily=Teko Light;container=0;" parent="1" vertex="1">
          <mxGeometry x="209.2485714285714" y="86.99757674418606" width="6" height="4" as="geometry" />
        </mxCell>
        <mxCell id="u_5jVX6GxhMMPaia9oR6-107" value="" style="rounded=0;whiteSpace=wrap;html=1;strokeColor=none;fillColor=#000000;fontColor=#ffffff;strokeWidth=0.1;fontSize=3;fontFamily=Teko Light;container=0;" parent="1" vertex="1">
          <mxGeometry x="220.24714285714285" y="90.00107499506062" width="12" height="7" as="geometry" />
        </mxCell>
        <mxCell id="u_5jVX6GxhMMPaia9oR6-108" value="" style="rounded=0;whiteSpace=wrap;html=1;strokeColor=none;fillColor=#000000;fontColor=#ffffff;strokeWidth=0.1;fontSize=3;fontFamily=Teko Light;container=0;" parent="1" vertex="1">
          <mxGeometry x="223.2485714285714" y="86.99757674418606" width="6" height="4" as="geometry" />
        </mxCell>
        <mxCell id="u_5jVX6GxhMMPaia9oR6-109" value="" style="rounded=0;whiteSpace=wrap;html=1;strokeColor=none;fillColor=#000000;fontColor=#ffffff;strokeWidth=0.1;fontSize=3;fontFamily=Teko Light;container=0;" parent="1" vertex="1">
          <mxGeometry x="234.24714285714285" y="90.00107499506062" width="12" height="7" as="geometry" />
        </mxCell>
        <mxCell id="u_5jVX6GxhMMPaia9oR6-110" value="" style="rounded=0;whiteSpace=wrap;html=1;strokeColor=none;fillColor=#000000;fontColor=#ffffff;strokeWidth=0.1;fontSize=3;fontFamily=Teko Light;container=0;" parent="1" vertex="1">
          <mxGeometry x="237.2485714285714" y="86.99757674418606" width="6" height="4" as="geometry" />
        </mxCell>
        <mxCell id="0mIf3ANARtZ_98zYbFkS-39" value="10" style="rounded=0;html=1;strokeColor=#000000;fillColor=#00FF00;fontColor=#000000;strokeWidth=0.1;fontSize=3;fontFamily=Helvetica;container=0;flipV=0;flipH=0;whiteSpace=wrap;" vertex="1" parent="1">
          <mxGeometry x="135.25" y="114.03960396039604" width="4" height="3.9603960396039626" as="geometry" />
        </mxCell>
        <mxCell id="0mIf3ANARtZ_98zYbFkS-40" value="" style="rounded=0;html=1;strokeColor=#000000;fillColor=#000000;fontColor=#000000;strokeWidth=0.1;fontSize=3;fontFamily=Helvetica;container=0;flipV=0;flipH=0;whiteSpace=wrap;" vertex="1" parent="1">
          <mxGeometry x="135.25" y="113.04950495049505" width="4" height="0.9900990099009906" as="geometry" />
        </mxCell>
        <mxCell id="0mIf3ANARtZ_98zYbFkS-37" value="9" style="rounded=0;html=1;strokeColor=#000000;fillColor=#00FF00;fontColor=#000000;strokeWidth=0.1;fontSize=3;fontFamily=Helvetica;container=0;whiteSpace=wrap;" vertex="1" parent="1">
          <mxGeometry x="130.25" y="113.04950495049505" width="4" height="3.9603960396039626" as="geometry" />
        </mxCell>
        <mxCell id="0mIf3ANARtZ_98zYbFkS-38" value="" style="rounded=0;html=1;strokeColor=#000000;fillColor=#000000;fontColor=#000000;strokeWidth=0.1;fontSize=3;fontFamily=Helvetica;container=0;whiteSpace=wrap;" vertex="1" parent="1">
          <mxGeometry x="130.25" y="117.00990099009901" width="4" height="0.9900990099009906" as="geometry" />
        </mxCell>
        <mxCell id="0mIf3ANARtZ_98zYbFkS-45" value="12" style="rounded=0;html=1;strokeColor=#000000;fillColor=#00FF00;fontColor=#000000;strokeWidth=0.1;fontSize=3;fontFamily=Helvetica;container=0;flipV=0;flipH=0;whiteSpace=wrap;" vertex="1" parent="1">
          <mxGeometry x="149.25" y="113.99009900990099" width="4" height="3.9603960396039626" as="geometry" />
        </mxCell>
        <mxCell id="0mIf3ANARtZ_98zYbFkS-46" value="" style="rounded=0;html=1;strokeColor=#000000;fillColor=#000000;fontColor=#000000;strokeWidth=0.1;fontSize=3;fontFamily=Helvetica;container=0;flipV=0;flipH=0;whiteSpace=wrap;" vertex="1" parent="1">
          <mxGeometry x="149.25" y="113" width="4" height="0.9900990099009906" as="geometry" />
        </mxCell>
        <mxCell id="0mIf3ANARtZ_98zYbFkS-43" value="11" style="rounded=0;html=1;strokeColor=#000000;fillColor=#00FF00;fontColor=#000000;strokeWidth=0.1;fontSize=3;fontFamily=Helvetica;container=0;whiteSpace=wrap;" vertex="1" parent="1">
          <mxGeometry x="144.25" y="113" width="4" height="3.9603960396039626" as="geometry" />
        </mxCell>
        <mxCell id="0mIf3ANARtZ_98zYbFkS-44" value="" style="rounded=0;html=1;strokeColor=#000000;fillColor=#000000;fontColor=#000000;strokeWidth=0.1;fontSize=3;fontFamily=Helvetica;container=0;whiteSpace=wrap;" vertex="1" parent="1">
          <mxGeometry x="144.25" y="116.96039603960396" width="4" height="0.9900990099009906" as="geometry" />
        </mxCell>
        <mxCell id="0mIf3ANARtZ_98zYbFkS-51" value="14" style="rounded=0;html=1;strokeColor=#000000;fillColor=#00FF00;fontColor=#000000;strokeWidth=0.1;fontSize=3;fontFamily=Helvetica;container=0;flipV=0;flipH=0;whiteSpace=wrap;" vertex="1" parent="1">
          <mxGeometry x="163.25" y="113.99009900990099" width="4" height="3.9603960396039626" as="geometry" />
        </mxCell>
        <mxCell id="0mIf3ANARtZ_98zYbFkS-52" value="" style="rounded=0;html=1;strokeColor=#000000;fillColor=#000000;fontColor=#000000;strokeWidth=0.1;fontSize=3;fontFamily=Helvetica;container=0;flipV=0;flipH=0;whiteSpace=wrap;" vertex="1" parent="1">
          <mxGeometry x="163.25" y="113" width="4" height="0.9900990099009906" as="geometry" />
        </mxCell>
        <mxCell id="0mIf3ANARtZ_98zYbFkS-49" value="13" style="rounded=0;html=1;strokeColor=#000000;fillColor=#00FF00;fontColor=#000000;strokeWidth=0.1;fontSize=3;fontFamily=Helvetica;container=0;whiteSpace=wrap;" vertex="1" parent="1">
          <mxGeometry x="158.25" y="113" width="4" height="3.9603960396039626" as="geometry" />
        </mxCell>
        <mxCell id="0mIf3ANARtZ_98zYbFkS-50" value="" style="rounded=0;html=1;strokeColor=#000000;fillColor=#000000;fontColor=#000000;strokeWidth=0.1;fontSize=3;fontFamily=Helvetica;container=0;whiteSpace=wrap;" vertex="1" parent="1">
          <mxGeometry x="158.25" y="116.96039603960396" width="4" height="0.9900990099009906" as="geometry" />
        </mxCell>
        <mxCell id="0mIf3ANARtZ_98zYbFkS-57" value="16" style="rounded=0;html=1;strokeColor=#000000;fillColor=#00FF00;fontColor=#000000;strokeWidth=0.1;fontSize=3;fontFamily=Helvetica;container=0;flipV=0;flipH=0;whiteSpace=wrap;" vertex="1" parent="1">
          <mxGeometry x="177.25" y="113.99009900990099" width="4" height="3.9603960396039626" as="geometry" />
        </mxCell>
        <mxCell id="0mIf3ANARtZ_98zYbFkS-58" value="" style="rounded=0;html=1;strokeColor=#000000;fillColor=#000000;fontColor=#000000;strokeWidth=0.1;fontSize=3;fontFamily=Helvetica;container=0;flipV=0;flipH=0;whiteSpace=wrap;" vertex="1" parent="1">
          <mxGeometry x="177.25" y="113" width="4" height="0.9900990099009906" as="geometry" />
        </mxCell>
        <mxCell id="0mIf3ANARtZ_98zYbFkS-55" value="15" style="rounded=0;html=1;strokeColor=#000000;fillColor=#00FF00;fontColor=#000000;strokeWidth=0.1;fontSize=3;fontFamily=Helvetica;container=0;whiteSpace=wrap;" vertex="1" parent="1">
          <mxGeometry x="172.25" y="113" width="4" height="3.9603960396039626" as="geometry" />
        </mxCell>
        <mxCell id="0mIf3ANARtZ_98zYbFkS-56" value="" style="rounded=0;html=1;strokeColor=#000000;fillColor=#000000;fontColor=#000000;strokeWidth=0.1;fontSize=3;fontFamily=Helvetica;container=0;whiteSpace=wrap;" vertex="1" parent="1">
          <mxGeometry x="172.25" y="116.96039603960396" width="4" height="0.9900990099009906" as="geometry" />
        </mxCell>
        <mxCell id="0mIf3ANARtZ_98zYbFkS-64" value="18" style="rounded=0;html=1;strokeColor=#000000;fillColor=#00FF00;fontColor=#000000;strokeWidth=0.1;fontSize=3;fontFamily=Helvetica;container=0;flipV=0;flipH=0;whiteSpace=wrap;" vertex="1" parent="1">
          <mxGeometry x="198.75" y="114.03960396039604" width="4" height="3.9603960396039626" as="geometry" />
        </mxCell>
        <mxCell id="0mIf3ANARtZ_98zYbFkS-65" value="" style="rounded=0;html=1;strokeColor=#000000;fillColor=#000000;fontColor=#000000;strokeWidth=0.1;fontSize=3;fontFamily=Helvetica;container=0;flipV=0;flipH=0;whiteSpace=wrap;" vertex="1" parent="1">
          <mxGeometry x="198.75" y="113.04950495049505" width="4" height="0.9900990099009906" as="geometry" />
        </mxCell>
        <mxCell id="0mIf3ANARtZ_98zYbFkS-62" value="17" style="rounded=0;html=1;strokeColor=#000000;fillColor=#00FF00;fontColor=#000000;strokeWidth=0.1;fontSize=3;fontFamily=Helvetica;container=0;whiteSpace=wrap;" vertex="1" parent="1">
          <mxGeometry x="193.75" y="113.04950495049505" width="4" height="3.9603960396039626" as="geometry" />
        </mxCell>
        <mxCell id="0mIf3ANARtZ_98zYbFkS-63" value="" style="rounded=0;html=1;strokeColor=#000000;fillColor=#000000;fontColor=#000000;strokeWidth=0.1;fontSize=3;fontFamily=Helvetica;container=0;whiteSpace=wrap;" vertex="1" parent="1">
          <mxGeometry x="193.75" y="117.00990099009901" width="4" height="0.9900990099009906" as="geometry" />
        </mxCell>
        <mxCell id="0mIf3ANARtZ_98zYbFkS-70" value="20" style="rounded=0;html=1;strokeColor=#000000;fillColor=#00FF00;fontColor=#000000;strokeWidth=0.1;fontSize=3;fontFamily=Helvetica;container=0;flipV=0;flipH=0;whiteSpace=wrap;" vertex="1" parent="1">
          <mxGeometry x="212.75" y="113.99009900990099" width="4" height="3.9603960396039626" as="geometry" />
        </mxCell>
        <mxCell id="0mIf3ANARtZ_98zYbFkS-71" value="" style="rounded=0;html=1;strokeColor=#000000;fillColor=#000000;fontColor=#000000;strokeWidth=0.1;fontSize=3;fontFamily=Helvetica;container=0;flipV=0;flipH=0;whiteSpace=wrap;" vertex="1" parent="1">
          <mxGeometry x="212.75" y="113" width="4" height="0.9900990099009906" as="geometry" />
        </mxCell>
        <mxCell id="0mIf3ANARtZ_98zYbFkS-68" value="19" style="rounded=0;html=1;strokeColor=#000000;fillColor=#00FF00;fontColor=#000000;strokeWidth=0.1;fontSize=3;fontFamily=Helvetica;container=0;whiteSpace=wrap;" vertex="1" parent="1">
          <mxGeometry x="207.75" y="113" width="4" height="3.9603960396039626" as="geometry" />
        </mxCell>
        <mxCell id="0mIf3ANARtZ_98zYbFkS-69" value="" style="rounded=0;html=1;strokeColor=#000000;fillColor=#000000;fontColor=#000000;strokeWidth=0.1;fontSize=3;fontFamily=Helvetica;container=0;whiteSpace=wrap;" vertex="1" parent="1">
          <mxGeometry x="207.75" y="116.96039603960396" width="4" height="0.9900990099009906" as="geometry" />
        </mxCell>
        <mxCell id="0mIf3ANARtZ_98zYbFkS-76" value="22" style="rounded=0;html=1;strokeColor=#000000;fillColor=#00FF00;fontColor=#000000;strokeWidth=0.1;fontSize=3;fontFamily=Helvetica;container=0;flipV=0;flipH=0;whiteSpace=wrap;" vertex="1" parent="1">
          <mxGeometry x="226.75" y="113.99009900990099" width="4" height="3.9603960396039626" as="geometry" />
        </mxCell>
        <mxCell id="0mIf3ANARtZ_98zYbFkS-77" value="" style="rounded=0;html=1;strokeColor=#000000;fillColor=#000000;fontColor=#000000;strokeWidth=0.1;fontSize=3;fontFamily=Helvetica;container=0;flipV=0;flipH=0;whiteSpace=wrap;" vertex="1" parent="1">
          <mxGeometry x="226.75" y="113" width="4" height="0.9900990099009906" as="geometry" />
        </mxCell>
        <mxCell id="0mIf3ANARtZ_98zYbFkS-74" value="21" style="rounded=0;html=1;strokeColor=#000000;fillColor=#00FF00;fontColor=#000000;strokeWidth=0.1;fontSize=3;fontFamily=Helvetica;container=0;whiteSpace=wrap;" vertex="1" parent="1">
          <mxGeometry x="221.75" y="113" width="4" height="3.9603960396039626" as="geometry" />
        </mxCell>
        <mxCell id="0mIf3ANARtZ_98zYbFkS-75" value="" style="rounded=0;html=1;strokeColor=#000000;fillColor=#000000;fontColor=#000000;strokeWidth=0.1;fontSize=3;fontFamily=Helvetica;container=0;whiteSpace=wrap;" vertex="1" parent="1">
          <mxGeometry x="221.75" y="116.96039603960396" width="4" height="0.9900990099009906" as="geometry" />
        </mxCell>
        <mxCell id="0mIf3ANARtZ_98zYbFkS-82" value="24" style="rounded=0;html=1;strokeColor=#000000;fillColor=#00FF00;fontColor=#000000;strokeWidth=0.1;fontSize=3;fontFamily=Helvetica;container=0;flipV=0;flipH=0;whiteSpace=wrap;" vertex="1" parent="1">
          <mxGeometry x="240.75" y="113.99009900990099" width="4" height="3.9603960396039626" as="geometry" />
        </mxCell>
        <mxCell id="0mIf3ANARtZ_98zYbFkS-83" value="" style="rounded=0;html=1;strokeColor=#000000;fillColor=#000000;fontColor=#000000;strokeWidth=0.1;fontSize=3;fontFamily=Helvetica;container=0;flipV=0;flipH=0;whiteSpace=wrap;" vertex="1" parent="1">
          <mxGeometry x="240.75" y="113" width="4" height="0.9900990099009906" as="geometry" />
        </mxCell>
        <mxCell id="0mIf3ANARtZ_98zYbFkS-80" value="23" style="rounded=0;html=1;strokeColor=#000000;fillColor=#00FF00;fontColor=#000000;strokeWidth=0.1;fontSize=3;fontFamily=Helvetica;container=0;whiteSpace=wrap;" vertex="1" parent="1">
          <mxGeometry x="235.75" y="113" width="4" height="3.9603960396039626" as="geometry" />
        </mxCell>
        <mxCell id="0mIf3ANARtZ_98zYbFkS-81" value="" style="rounded=0;html=1;strokeColor=#000000;fillColor=#000000;fontColor=#000000;strokeWidth=0.1;fontSize=3;fontFamily=Helvetica;container=0;whiteSpace=wrap;" vertex="1" parent="1">
          <mxGeometry x="235.75" y="116.96039603960396" width="4" height="0.9900990099009906" as="geometry" />
        </mxCell>
        <mxCell id="0mIf3ANARtZ_98zYbFkS-21" value="4" style="rounded=0;html=1;strokeColor=#000000;fillColor=#00FF00;fontColor=#000000;strokeWidth=0.1;fontSize=3;fontFamily=Helvetica;container=0;flipV=0;flipH=0;whiteSpace=wrap;" vertex="1" parent="1">
          <mxGeometry x="85.75" y="113.99009900990099" width="4" height="3.9603960396039626" as="geometry" />
        </mxCell>
        <mxCell id="0mIf3ANARtZ_98zYbFkS-22" value="" style="rounded=0;html=1;strokeColor=#000000;fillColor=#000000;fontColor=#000000;strokeWidth=0.1;fontSize=3;fontFamily=Helvetica;container=0;flipV=0;flipH=0;whiteSpace=wrap;" vertex="1" parent="1">
          <mxGeometry x="85.75" y="113" width="4" height="0.9900990099009906" as="geometry" />
        </mxCell>
        <mxCell id="0mIf3ANARtZ_98zYbFkS-19" value="3" style="rounded=0;html=1;strokeColor=#000000;fillColor=#00FF00;fontColor=#000000;strokeWidth=0.1;fontSize=3;fontFamily=Helvetica;container=0;whiteSpace=wrap;" vertex="1" parent="1">
          <mxGeometry x="80.75" y="113" width="4" height="3.9603960396039626" as="geometry" />
        </mxCell>
        <mxCell id="0mIf3ANARtZ_98zYbFkS-20" value="" style="rounded=0;html=1;strokeColor=#000000;fillColor=#000000;fontColor=#000000;strokeWidth=0.1;fontSize=3;fontFamily=Helvetica;container=0;whiteSpace=wrap;" vertex="1" parent="1">
          <mxGeometry x="80.75" y="116.96039603960396" width="4" height="0.9900990099009906" as="geometry" />
        </mxCell>
        <mxCell id="0mIf3ANARtZ_98zYbFkS-27" value="6" style="rounded=0;html=1;strokeColor=#000000;fillColor=#00FF00;fontColor=#000000;strokeWidth=0.1;fontSize=3;fontFamily=Helvetica;container=0;flipV=0;flipH=0;whiteSpace=wrap;" vertex="1" parent="1">
          <mxGeometry x="99.75" y="113.99009900990099" width="4" height="3.9603960396039626" as="geometry" />
        </mxCell>
        <mxCell id="0mIf3ANARtZ_98zYbFkS-28" value="" style="rounded=0;html=1;strokeColor=#000000;fillColor=#000000;fontColor=#000000;strokeWidth=0.1;fontSize=3;fontFamily=Helvetica;container=0;flipV=0;flipH=0;whiteSpace=wrap;" vertex="1" parent="1">
          <mxGeometry x="99.75" y="113" width="4" height="0.9900990099009906" as="geometry" />
        </mxCell>
        <mxCell id="0mIf3ANARtZ_98zYbFkS-25" value="5" style="rounded=0;html=1;strokeColor=#000000;fillColor=#00FF00;fontColor=#000000;strokeWidth=0.1;fontSize=3;fontFamily=Helvetica;container=0;whiteSpace=wrap;" vertex="1" parent="1">
          <mxGeometry x="94.75" y="113" width="4" height="3.9603960396039626" as="geometry" />
        </mxCell>
        <mxCell id="0mIf3ANARtZ_98zYbFkS-26" value="" style="rounded=0;html=1;strokeColor=#000000;fillColor=#000000;fontColor=#000000;strokeWidth=0.1;fontSize=3;fontFamily=Helvetica;container=0;whiteSpace=wrap;" vertex="1" parent="1">
          <mxGeometry x="94.75" y="116.96039603960396" width="4" height="0.9900990099009906" as="geometry" />
        </mxCell>
        <mxCell id="0mIf3ANARtZ_98zYbFkS-33" value="8" style="rounded=0;html=1;strokeColor=#000000;fillColor=#00FF00;fontColor=#000000;strokeWidth=0.1;fontSize=3;fontFamily=Helvetica;container=0;flipV=0;flipH=0;whiteSpace=wrap;" vertex="1" parent="1">
          <mxGeometry x="113.75" y="113.99009900990099" width="4" height="3.9603960396039626" as="geometry" />
        </mxCell>
        <mxCell id="0mIf3ANARtZ_98zYbFkS-34" value="" style="rounded=0;html=1;strokeColor=#000000;fillColor=#000000;fontColor=#000000;strokeWidth=0.1;fontSize=3;fontFamily=Helvetica;container=0;flipV=0;flipH=0;whiteSpace=wrap;" vertex="1" parent="1">
          <mxGeometry x="113.75" y="113" width="4" height="0.9900990099009906" as="geometry" />
        </mxCell>
        <mxCell id="0mIf3ANARtZ_98zYbFkS-31" value="7" style="rounded=0;html=1;strokeColor=#000000;fillColor=#00FF00;fontColor=#000000;strokeWidth=0.1;fontSize=3;fontFamily=Helvetica;container=0;whiteSpace=wrap;" vertex="1" parent="1">
          <mxGeometry x="108.75" y="113" width="4" height="3.9603960396039626" as="geometry" />
        </mxCell>
        <mxCell id="0mIf3ANARtZ_98zYbFkS-32" value="" style="rounded=0;html=1;strokeColor=#000000;fillColor=#000000;fontColor=#000000;strokeWidth=0.1;fontSize=3;fontFamily=Helvetica;container=0;whiteSpace=wrap;" vertex="1" parent="1">
          <mxGeometry x="108.75" y="116.96039603960396" width="4" height="0.9900990099009906" as="geometry" />
        </mxCell>
        <mxCell id="0mIf3ANARtZ_98zYbFkS-88" value="" style="rounded=0;html=1;strokeColor=#000000;fillColor=#0000FF;fontColor=#000000;strokeWidth=0.1;fontSize=3;fontFamily=Helvetica;container=0;whiteSpace=wrap;" vertex="1" parent="1">
          <mxGeometry x="42" y="113.44950495049505" width="3" height="3" as="geometry" />
        </mxCell>
        <mxCell id="0mIf3ANARtZ_98zYbFkS-89" value="" style="rounded=0;html=1;strokeColor=#000000;fillColor=#0000FF;fontColor=#000000;strokeWidth=0.1;fontSize=3;fontFamily=Helvetica;container=0;whiteSpace=wrap;" vertex="1" parent="1">
          <mxGeometry x="56.5" y="113.44950495049505" width="3" height="3" as="geometry" />
        </mxCell>
        <mxCell id="0mIf3ANARtZ_98zYbFkS-90" value="PWR" style="text;align=center;verticalAlign=middle;rounded=0;spacing=0;spacingBottom=0;textShadow=0;fontFamily=Lucida Console;fontSize=3;fontColor=#000000;spacingRight=0;spacingLeft=0;whiteSpace=wrap;html=1;container=0;" vertex="1" parent="1">
          <mxGeometry x="40.28000000000003" y="116.96000000000001" width="6.44" height="2.4" as="geometry" />
        </mxCell>
        <mxCell id="0mIf3ANARtZ_98zYbFkS-91" value="USR" style="text;align=center;verticalAlign=middle;rounded=0;spacing=0;spacingBottom=0;textShadow=0;fontFamily=Lucida Console;fontSize=3;fontColor=#000000;spacingRight=0;spacingLeft=0;whiteSpace=wrap;html=1;container=0;" vertex="1" parent="1">
          <mxGeometry x="54.78000000000003" y="117.05000000000001" width="6.44" height="2.4" as="geometry" />
        </mxCell>
        <mxCell id="0mIf3ANARtZ_98zYbFkS-158" value="" style="rounded=0;html=1;strokeColor=#000000;fillColor=#00FF00;fontColor=#000000;strokeWidth=0.1;fontSize=3;fontFamily=Helvetica;container=0;whiteSpace=wrap;" vertex="1" parent="1">
          <mxGeometry x="284" y="112.99950495049505" width="3" height="3" as="geometry" />
        </mxCell>
        <mxCell id="0mIf3ANARtZ_98zYbFkS-159" value="ACT/LINK" style="text;align=center;verticalAlign=middle;rounded=0;spacing=0;spacingBottom=0;textShadow=0;fontFamily=Lucida Console;fontSize=2;fontColor=#000000;spacingRight=0;spacingLeft=0;whiteSpace=wrap;html=1;container=0;" vertex="1" parent="1">
          <mxGeometry x="282.28000000000003" y="115.51" width="6.44" height="2.4" as="geometry" />
        </mxCell>
        <mxCell id="0mIf3ANARtZ_98zYbFkS-170" style="edgeStyle=orthogonalEdgeStyle;rounded=1;orthogonalLoop=1;jettySize=auto;html=1;exitX=0.5;exitY=0;exitDx=0;exitDy=0;entryX=1;entryY=0.5;entryDx=0;entryDy=0;strokeColor=#000000;strokeWidth=0.5;align=center;verticalAlign=middle;fontFamily=Helvetica;fontSize=11;fontColor=default;labelBackgroundColor=default;endArrow=none;endFill=0;curved=0;" edge="1" parent="1" source="0mIf3ANARtZ_98zYbFkS-164" target="0mIf3ANARtZ_98zYbFkS-139">
          <mxGeometry relative="1" as="geometry">
            <Array as="points">
              <mxPoint x="296" y="107" />
            </Array>
          </mxGeometry>
        </mxCell>
        <mxCell id="0mIf3ANARtZ_98zYbFkS-164" value="" style="rounded=0;html=1;strokeColor=#000000;fillColor=#00FF00;fontColor=#000000;strokeWidth=0.1;fontSize=3;fontFamily=Helvetica;container=0;whiteSpace=wrap;" vertex="1" parent="1">
          <mxGeometry x="294.72" y="112.94950495049505" width="3" height="3" as="geometry" />
        </mxCell>
        <mxCell id="0mIf3ANARtZ_98zYbFkS-165" value="10G" style="text;align=center;verticalAlign=middle;rounded=0;spacing=0;spacingBottom=0;textShadow=0;fontFamily=Lucida Console;fontSize=2;fontColor=#000000;spacingRight=0;spacingLeft=0;whiteSpace=wrap;html=1;container=0;" vertex="1" parent="1">
          <mxGeometry x="293.00000000000006" y="115.46000000000001" width="6.44" height="2.4" as="geometry" />
        </mxCell>
        <mxCell id="0mIf3ANARtZ_98zYbFkS-169" style="edgeStyle=orthogonalEdgeStyle;rounded=1;orthogonalLoop=1;jettySize=auto;html=1;exitX=0.5;exitY=0;exitDx=0;exitDy=0;entryX=1;entryY=0.5;entryDx=0;entryDy=0;endArrow=none;endFill=0;strokeColor=#000000;curved=0;strokeWidth=0.5;endSize=6;jumpSize=6;flowAnimation=0;" edge="1" parent="1" source="0mIf3ANARtZ_98zYbFkS-147" target="0mIf3ANARtZ_98zYbFkS-96">
          <mxGeometry relative="1" as="geometry">
            <Array as="points">
              <mxPoint x="275" y="108" />
            </Array>
          </mxGeometry>
        </mxCell>
        <mxCell id="0mIf3ANARtZ_98zYbFkS-171" value="" style="rounded=0;html=1;strokeColor=none;fillColor=#33FFFF;fontColor=#000000;strokeWidth=0.1;fontSize=3;fontFamily=Helvetica;container=0;whiteSpace=wrap;" vertex="1" parent="1">
          <mxGeometry x="61.75" y="101.01" width="9" height="12" as="geometry" />
        </mxCell>
        <mxCell id="u_5jVX6GxhMMPaia9oR6-25" value="" style="rounded=0;whiteSpace=wrap;html=1;strokeColor=#000000;fillColor=#BFBFBF;fontColor=#ffffff;strokeWidth=0.1;fontSize=3;fontFamily=Teko Light;align=center;verticalAlign=middle;container=0;" parent="1" vertex="1">
          <mxGeometry x="62.5" y="86.5" width="59.5" height="26" as="geometry" />
        </mxCell>
        <mxCell id="u_5jVX6GxhMMPaia9oR6-68" value="" style="rounded=0;whiteSpace=wrap;html=1;strokeColor=none;fillColor=#000000;fontColor=#ffffff;strokeWidth=0.1;fontSize=3;fontFamily=Teko Light;container=0;" parent="1" vertex="1">
          <mxGeometry x="107.24714285714285" y="101.9940784933115" width="12" height="7" as="geometry" />
        </mxCell>
        <mxCell id="u_5jVX6GxhMMPaia9oR6-69" value="" style="rounded=0;whiteSpace=wrap;html=1;strokeColor=none;fillColor=#000000;fontColor=#ffffff;strokeWidth=0.1;fontSize=3;fontFamily=Teko Light;container=0;" parent="1" vertex="1">
          <mxGeometry x="110.24857142857141" y="107.99757674418606" width="6" height="4" as="geometry" />
        </mxCell>
        <mxCell id="u_5jVX6GxhMMPaia9oR6-65" value="" style="rounded=0;whiteSpace=wrap;html=1;strokeColor=none;fillColor=#000000;fontColor=#ffffff;strokeWidth=0.1;fontSize=3;fontFamily=Teko Light;container=0;" parent="1" vertex="1">
          <mxGeometry x="93.24714285714285" y="101.9940784933115" width="12" height="7" as="geometry" />
        </mxCell>
        <mxCell id="u_5jVX6GxhMMPaia9oR6-66" value="" style="rounded=0;whiteSpace=wrap;html=1;strokeColor=none;fillColor=#000000;fontColor=#ffffff;strokeWidth=0.1;fontSize=3;fontFamily=Teko Light;container=0;" parent="1" vertex="1">
          <mxGeometry x="96.24857142857141" y="107.99757674418606" width="6" height="4" as="geometry" />
        </mxCell>
        <mxCell id="u_5jVX6GxhMMPaia9oR6-62" value="" style="rounded=0;whiteSpace=wrap;html=1;strokeColor=none;fillColor=#000000;fontColor=#ffffff;strokeWidth=0.1;fontSize=3;fontFamily=Teko Light;container=0;" parent="1" vertex="1">
          <mxGeometry x="79.24714285714285" y="101.9940784933115" width="12" height="7" as="geometry" />
        </mxCell>
        <mxCell id="u_5jVX6GxhMMPaia9oR6-63" value="" style="rounded=0;whiteSpace=wrap;html=1;strokeColor=none;fillColor=#000000;fontColor=#ffffff;strokeWidth=0.1;fontSize=3;fontFamily=Teko Light;container=0;" parent="1" vertex="1">
          <mxGeometry x="82.24857142857141" y="107.99757674418606" width="6" height="4" as="geometry" />
        </mxCell>
        <mxCell id="u_5jVX6GxhMMPaia9oR6-59" value="" style="rounded=0;whiteSpace=wrap;html=1;strokeColor=none;fillColor=#000000;fontColor=#ffffff;strokeWidth=0.1;fontSize=3;fontFamily=Teko Light;container=0;" parent="1" vertex="1">
          <mxGeometry x="65.24714285714285" y="101.99757674418606" width="12" height="6.99650174912544" as="geometry" />
        </mxCell>
        <mxCell id="u_5jVX6GxhMMPaia9oR6-60" value="" style="rounded=0;whiteSpace=wrap;html=1;strokeColor=none;fillColor=#000000;fontColor=#ffffff;strokeWidth=0.1;fontSize=3;fontFamily=Teko Light;container=0;" parent="1" vertex="1">
          <mxGeometry x="68.24857142857141" y="107.99757674418606" width="6" height="4" as="geometry" />
        </mxCell>
        <mxCell id="u_5jVX6GxhMMPaia9oR6-29" value="" style="rounded=0;whiteSpace=wrap;html=1;strokeColor=none;fillColor=#000000;fontColor=#ffffff;strokeWidth=0.1;fontSize=3;fontFamily=Teko Light;container=0;" parent="1" vertex="1">
          <mxGeometry x="65.24714285714285" y="90.00107499506062" width="12" height="6.99650174912544" as="geometry" />
        </mxCell>
        <mxCell id="u_5jVX6GxhMMPaia9oR6-30" value="" style="rounded=0;whiteSpace=wrap;html=1;strokeColor=none;fillColor=#000000;fontColor=#ffffff;strokeWidth=0.1;fontSize=3;fontFamily=Teko Light;container=0;" parent="1" vertex="1">
          <mxGeometry x="68.24857142857142" y="86.99757674418606" width="6" height="4" as="geometry" />
        </mxCell>
        <mxCell id="u_5jVX6GxhMMPaia9oR6-36" value="" style="rounded=0;whiteSpace=wrap;html=1;strokeColor=none;fillColor=#000000;fontColor=#ffffff;strokeWidth=0.1;fontSize=3;fontFamily=Teko Light;container=0;" parent="1" vertex="1">
          <mxGeometry x="79.24714285714285" y="90.00107499506062" width="12" height="7" as="geometry" />
        </mxCell>
        <mxCell id="u_5jVX6GxhMMPaia9oR6-37" value="" style="rounded=0;whiteSpace=wrap;html=1;strokeColor=none;fillColor=#000000;fontColor=#ffffff;strokeWidth=0.1;fontSize=3;fontFamily=Teko Light;container=0;" parent="1" vertex="1">
          <mxGeometry x="82.24857142857141" y="86.99757674418606" width="6" height="4" as="geometry" />
        </mxCell>
        <mxCell id="u_5jVX6GxhMMPaia9oR6-39" value="" style="rounded=0;whiteSpace=wrap;html=1;strokeColor=none;fillColor=#000000;fontColor=#ffffff;strokeWidth=0.1;fontSize=3;fontFamily=Teko Light;container=0;" parent="1" vertex="1">
          <mxGeometry x="93.24714285714285" y="90.00107499506062" width="12" height="7" as="geometry" />
        </mxCell>
        <mxCell id="u_5jVX6GxhMMPaia9oR6-40" value="" style="rounded=0;whiteSpace=wrap;html=1;strokeColor=none;fillColor=#000000;fontColor=#ffffff;strokeWidth=0.1;fontSize=3;fontFamily=Teko Light;container=0;" parent="1" vertex="1">
          <mxGeometry x="96.24857142857141" y="86.99757674418606" width="6" height="4" as="geometry" />
        </mxCell>
        <mxCell id="u_5jVX6GxhMMPaia9oR6-42" value="" style="rounded=0;whiteSpace=wrap;html=1;strokeColor=none;fillColor=#000000;fontColor=#ffffff;strokeWidth=0.1;fontSize=3;fontFamily=Teko Light;container=0;" parent="1" vertex="1">
          <mxGeometry x="107.24714285714285" y="90.00107499506062" width="12" height="7" as="geometry" />
        </mxCell>
        <mxCell id="u_5jVX6GxhMMPaia9oR6-43" value="" style="rounded=0;whiteSpace=wrap;html=1;strokeColor=none;fillColor=#000000;fontColor=#ffffff;strokeWidth=0.1;fontSize=3;fontFamily=Teko Light;container=0;" parent="1" vertex="1">
          <mxGeometry x="110.24857142857141" y="86.99757674418606" width="6" height="4" as="geometry" />
        </mxCell>
        <mxCell id="0mIf3ANARtZ_98zYbFkS-8" value="2" style="rounded=0;html=1;strokeColor=#000000;fillColor=#00FF00;fontColor=#000000;strokeWidth=0.1;fontSize=3;fontFamily=Helvetica;container=0;flipV=0;flipH=0;whiteSpace=wrap;" vertex="1" parent="1">
          <mxGeometry x="71.75" y="114.03960396039604" width="4" height="3.9603960396039626" as="geometry" />
        </mxCell>
        <mxCell id="0mIf3ANARtZ_98zYbFkS-9" value="" style="rounded=0;html=1;strokeColor=#000000;fillColor=#000000;fontColor=#000000;strokeWidth=0.1;fontSize=3;fontFamily=Helvetica;container=0;flipV=0;flipH=0;whiteSpace=wrap;" vertex="1" parent="1">
          <mxGeometry x="71.75" y="113.04950495049505" width="4" height="0.9900990099009906" as="geometry" />
        </mxCell>
        <mxCell id="0mIf3ANARtZ_98zYbFkS-4" value="1" style="rounded=0;html=1;strokeColor=#000000;fillColor=#00FF00;fontColor=#000000;strokeWidth=0.1;fontSize=3;fontFamily=Helvetica;container=0;whiteSpace=wrap;" vertex="1" parent="1">
          <mxGeometry x="66.75" y="113.04950495049505" width="4" height="3.9603960396039626" as="geometry" />
        </mxCell>
        <mxCell id="0mIf3ANARtZ_98zYbFkS-5" value="" style="rounded=0;html=1;strokeColor=#000000;fillColor=#000000;fontColor=#000000;strokeWidth=0.1;fontSize=3;fontFamily=Helvetica;container=0;whiteSpace=wrap;" vertex="1" parent="1">
          <mxGeometry x="66.75" y="117.00990099009901" width="4" height="0.9900990099009906" as="geometry" />
        </mxCell>
        <mxCell id="0mIf3ANARtZ_98zYbFkS-172" value="POE IN" style="text;html=1;align=center;verticalAlign=middle;whiteSpace=wrap;rounded=0;fontSize=3;fontColor=#000000;fontFamily=Lucida Console;spacing=0;container=0;direction=east;textDirection=vertical-lr;horizontal=0;rotation=-90;" vertex="1" parent="1">
          <mxGeometry x="54.78035714285715" y="105.28" width="13.839285714285715" height="3.45" as="geometry" />
        </mxCell>
        <mxCell id="77pc72yBM60ju-O2q9E9-224" value="CONSOLE" style="text;html=1;align=center;verticalAlign=middle;whiteSpace=wrap;rounded=0;fontSize=3;fontColor=#000000;fontFamily=Lucida Console;spacing=0;container=0;" parent="1" vertex="1">
          <mxGeometry x="43.830357142857146" y="95" width="13.839285714285715" height="3.45" as="geometry" />
        </mxCell>
        <mxCell id="PZP4gdgeWaH-fIwLRfgN-689" value="" style="rounded=0;whiteSpace=wrap;html=1;strokeColor=#000000;fillColor=#BFBFBF;fontColor=#ffffff;strokeWidth=0.1;fontSize=3;fontFamily=Teko Light;align=center;verticalAlign=middle;container=0;" parent="1" vertex="1">
          <mxGeometry x="43" y="98.45" width="15.500000000000002" height="14" as="geometry" />
        </mxCell>
        <mxCell id="PZP4gdgeWaH-fIwLRfgN-695" value="" style="rounded=0;whiteSpace=wrap;html=1;strokeColor=none;fillColor=#000000;fontColor=#ffffff;strokeWidth=0.1;fontSize=3;fontFamily=Teko Light;container=0;" parent="1" vertex="1">
          <mxGeometry x="44.107142857142854" y="99.95257674418606" width="13.285714285714288" height="7.700000000000005" as="geometry" />
        </mxCell>
        <mxCell id="PZP4gdgeWaH-fIwLRfgN-696" value="" style="rounded=0;whiteSpace=wrap;html=1;strokeColor=none;fillColor=#000000;fontColor=#ffffff;strokeWidth=0.1;fontSize=3;fontFamily=Teko Light;container=0;" parent="1" vertex="1">
          <mxGeometry x="47.42857142857142" y="106.38757674418605" width="6.642857142857144" height="4.565000000000003" as="geometry" />
        </mxCell>
        <mxCell id="0mIf3ANARtZ_98zYbFkS-96" value="" style="rounded=0;whiteSpace=wrap;html=1;strokeColor=#000000;fillColor=#BFBFBF;fontColor=#ffffff;strokeWidth=0.1;container=0;align=center;verticalAlign=middle;fontFamily=Teko Light;fontSize=3;" vertex="1" parent="1">
          <mxGeometry x="257" y="102.5" width="15" height="9.999999999999993" as="geometry" />
        </mxCell>
        <mxCell id="0mIf3ANARtZ_98zYbFkS-105" value="" style="rounded=0;whiteSpace=wrap;html=1;strokeColor=#AAAAAA;fillColor=#000000;fontColor=#ffffff;strokeWidth=0.1;container=0;" vertex="1" parent="1">
          <mxGeometry x="257.6" y="103.02631578947368" width="13.79032258064516" height="8.947368421052628" as="geometry" />
        </mxCell>
        <mxCell id="0mIf3ANARtZ_98zYbFkS-106" value="" style="rounded=0;whiteSpace=wrap;html=1;strokeColor=#AAAAAA;fillColor=#BFBFBF;fontColor=#ffffff;strokeWidth=0.1;container=0;" vertex="1" parent="1">
          <mxGeometry x="262.08064516129036" y="111.35631578947371" width="4.838709677419354" height="0.6140350877192979" as="geometry" />
        </mxCell>
        <mxCell id="0mIf3ANARtZ_98zYbFkS-139" value="" style="rounded=0;whiteSpace=wrap;html=1;strokeColor=#000000;fillColor=#BFBFBF;fontColor=#ffffff;strokeWidth=0.1;container=0;align=center;verticalAlign=middle;fontFamily=Teko Light;fontSize=3;" vertex="1" parent="1">
          <mxGeometry x="278" y="102.5" width="15" height="9.999999999999993" as="geometry" />
        </mxCell>
        <mxCell id="0mIf3ANARtZ_98zYbFkS-140" value="" style="rounded=0;whiteSpace=wrap;html=1;strokeColor=#AAAAAA;fillColor=#000000;fontColor=#ffffff;strokeWidth=0.1;container=0;" vertex="1" parent="1">
          <mxGeometry x="278.6" y="103.02631578947368" width="13.79032258064516" height="8.947368421052628" as="geometry" />
        </mxCell>
        <mxCell id="0mIf3ANARtZ_98zYbFkS-141" value="" style="rounded=0;whiteSpace=wrap;html=1;strokeColor=#AAAAAA;fillColor=#BFBFBF;fontColor=#ffffff;strokeWidth=0.1;container=0;" vertex="1" parent="1">
          <mxGeometry x="283.08064516129036" y="111.35631578947371" width="4.838709677419354" height="0.6140350877192979" as="geometry" />
        </mxCell>
        <mxCell id="0mIf3ANARtZ_98zYbFkS-147" value="" style="rounded=0;html=1;strokeColor=#000000;fillColor=#00FF00;fontColor=#000000;strokeWidth=0.1;fontSize=3;fontFamily=Helvetica;container=0;whiteSpace=wrap;" vertex="1" parent="1">
          <mxGeometry x="273.72" y="112.99950495049505" width="3" height="3" as="geometry" />
        </mxCell>
        <mxCell id="0mIf3ANARtZ_98zYbFkS-148" value="10G" style="text;align=center;verticalAlign=middle;rounded=0;spacing=0;spacingBottom=0;textShadow=0;fontFamily=Lucida Console;fontSize=2;fontColor=#000000;spacingRight=0;spacingLeft=0;whiteSpace=wrap;html=1;container=0;" vertex="1" parent="1">
          <mxGeometry x="272.00000000000006" y="115.51" width="6.44" height="2.4" as="geometry" />
        </mxCell>
        <mxCell id="0mIf3ANARtZ_98zYbFkS-142" value="" style="rounded=0;html=1;strokeColor=#000000;fillColor=#00FF00;fontColor=#000000;strokeWidth=0.1;fontSize=3;fontFamily=Helvetica;container=0;whiteSpace=wrap;" vertex="1" parent="1">
          <mxGeometry x="263" y="113.04950495049505" width="3" height="3" as="geometry" />
        </mxCell>
        <mxCell id="0mIf3ANARtZ_98zYbFkS-143" value="ACT/LINK" style="text;align=center;verticalAlign=middle;rounded=0;spacing=0;spacingBottom=0;textShadow=0;fontFamily=Lucida Console;fontSize=2;fontColor=#000000;spacingRight=0;spacingLeft=0;whiteSpace=wrap;html=1;container=0;" vertex="1" parent="1">
          <mxGeometry x="261.28000000000003" y="115.56" width="6.44" height="2.4" as="geometry" />
        </mxCell>
        <mxCell id="0mIf3ANARtZ_98zYbFkS-181" value="&lt;span style=&quot;color: rgb(0, 0, 0); font-family: &amp;quot;Hemi Head&amp;quot;; font-size: 8px; text-align: right;&quot;&gt;Cloud Router Switch&lt;/span&gt;" style="text;html=1;align=center;verticalAlign=middle;whiteSpace=wrap;rounded=0;container=0;" vertex="1" parent="1">
          <mxGeometry x="386.6" y="81" width="83" height="8" as="geometry" />
        </mxCell>
      </root>
    </mxGraphModel>
  </diagram>
</mxfile>
